<?xml version="1.0" encoding="utf-8"?>
<!-- Generator: Adobe Illustrator 23.0.3, SVG Export Plug-In . SVG Version: 6.00 Build 0)  -->
<!DOCTYPE svg PUBLIC "-//W3C//DTD SVG 1.1//EN" "http://www.w3.org/Graphics/SVG/1.1/DTD/svg11.dtd" [
	<!ENTITY ns_extend "http://ns.adobe.com/Extensibility/1.0/">
	<!ENTITY ns_ai "http://ns.adobe.com/AdobeIllustrator/10.0/">
	<!ENTITY ns_graphs "http://ns.adobe.com/Graphs/1.0/">
	<!ENTITY ns_vars "http://ns.adobe.com/Variables/1.0/">
	<!ENTITY ns_imrep "http://ns.adobe.com/ImageReplacement/1.0/">
	<!ENTITY ns_sfw "http://ns.adobe.com/SaveForWeb/1.0/">
	<!ENTITY ns_custom "http://ns.adobe.com/GenericCustomNamespace/1.0/">
	<!ENTITY ns_adobe_xpath "http://ns.adobe.com/XPath/1.0/">
]>
<svg version="1.1" id="レイヤー_1" xmlns:x="&ns_extend;" xmlns:i="&ns_ai;" xmlns:graph="&ns_graphs;"
	 xmlns="http://www.w3.org/2000/svg" xmlns:xlink="http://www.w3.org/1999/xlink" x="0px" y="0px" width="360px" height="90px"
	 viewBox="0 0 360 90" style="enable-background:new 0 0 360 90;" xml:space="preserve">
<style type="text/css">
	.st0{fill-rule:evenodd;clip-rule:evenodd;fill:#FF6E2D;}
	.st1{fill:#FFFFFF;}
</style>
<metadata>
	<sfw  xmlns="&ns_sfw;">
		<slices></slices>
		<sliceSourceBounds  bottomLeftOrigin="true" height="90" width="359.3" x="0" y="0"></sliceSourceBounds>
	</sfw>
</metadata>
<g>
	<g>
		<path class="st0" d="M11,68.3L61.8,90V58.4l-21.6-9.1L11.8,61.1C7.3,62.9,5.4,65.8,11,68.3z"/>
		<path class="st0" d="M61.8,31.6L6.9,54.8C1.6,57,0.3,59.5,0,61.5l0-30.2c0-3.7,2.6-5.8,5.6-7.3L61.8,0V31.6z"/>
	</g>
	<g>
		<path class="st1" d="M132.5,7.2h-3.1c-0.2,0-0.3,0.1-0.3,0.3v3.1c0,0.2,0.1,0.3,0.3,0.3h3.1c0.2,0,0.3-0.1,0.3-0.3V7.5
			C132.8,7.3,132.6,7.2,132.5,7.2z"/>
		<path class="st1" d="M132.5,12.3h-3.1c-0.2,0-0.3,0.1-0.3,0.3v9.1c0,0.2,0.1,0.3,0.3,0.3h3.1c0.2,0,0.3-0.1,0.3-0.3v-9.1
			C132.8,12.4,132.6,12.3,132.5,12.3z"/>
		<path class="st1" d="M219.8,7c-1.6-1.4-3.2-2.2-6.9-2.2h-10.8c-0.2,0-0.3,0.1-0.3,0.3v16.5c0,0.2,0.1,0.3,0.3,0.3h10.8
			c3.7,0,5.3-0.8,6.9-2.2c1.7-1.5,2.5-3.6,2.5-6.4C222.3,10.7,221.5,8.5,219.8,7z M213.5,18.7l-8,0c0,0,0,0,0-0.1v-11
			c0,0,0-0.1,0-0.1c0,0,0,0,0,0h8c3.4,0,5.2,1.9,5.2,5.6C218.7,16.8,216.9,18.7,213.5,18.7z"/>
		<path class="st1" d="M178,22l17.8,0c0.3,0,0.4-0.1,0.4-0.3v-2.6c0-0.2-0.2-0.3-0.3-0.3h-14.4c0-1.5,0.3-1.9,1.2-2.7
			c0.7-0.6,1.9-1,3.8-1.4c2.3-0.5,3.9-0.7,5.1-0.9c0.4-0.1,0.8-0.1,1.1-0.2c1.3-0.2,2.2-0.8,2.8-1.8c0.8-1.4,0.8-3.2,0.4-4.4
			c-0.6-2-2.4-2.9-3.8-2.9l-14.1,0c-0.2,0-0.3,0.1-0.3,0.3v2.6c0,0.3,0.1,0.3,0.3,0.3h13.4c0.5,0,1.1,0.5,1.2,1.4
			c0,0.9-0.4,1.5-1.2,1.6l-1.2,0.2c-1.2,0.2-2.6,0.4-4,0.7c-3.6,0.7-5.7,1.6-7,3c-1.3,1.4-1.6,2.9-1.6,4.8v2.3
			C177.7,21.9,177.8,22,178,22z"/>
		<path class="st1" d="M171.6,15l-2.7,0c-0.2,0-0.3,0.1-0.3,0.3c-0.3,2.1-2.2,3.7-4.3,3.7c-0.7,0-1.3-0.2-1.9-0.4l8.1-8.1
			c0.1-0.1,0.1-0.2,0-0.4c-1.9-2.6-5.4-3.8-8.6-2.8c-2.8,0.9-4.8,3.4-5.2,6.4c-0.5,4.6,3.1,8.5,7.6,8.5c3.9,0,7.2-3,7.6-6.9
			C171.9,15.1,171.7,15,171.6,15z M159.9,14.6c0-2.4,2-4.4,4.4-4.4c0.5,0,1,0.1,1.5,0.3l-5.6,5.6C160,15.6,159.9,15.1,159.9,14.6z"
			/>
		<path class="st1" d="M123.7,22c0.2,0,0.3-0.1,0.3-0.3V19c0-0.2-0.1-0.3-0.3-0.3h-12.2v0.1c-0.3,0-0.4-0.1-0.5-0.3V4.8
			c0-0.2-0.3-0.4-0.3-0.4h-3.1c-0.2,0-0.3,0.1-0.3,0.3v17c0,0.2,0.1,0.3,0.3,0.3H123.7z"/>
		<path class="st1" d="M150.4,7.2c-0.2,0-0.4,0.1-0.4,0.3l-4.2,7.5c-0.1,0.1-0.2,0.1-0.3,0l-4.3-7.5c-0.1-0.1-0.3-0.3-0.4-0.3h-3.2
			c-0.2,0-0.2,0.1-0.2,0.3l8.1,14.4c0.1,0.1,0.2,0.1,0.3,0l8.1-14.4c0.1-0.1,0-0.3-0.2-0.3H150.4z"/>
	</g>
	<g>
		<path class="st1" d="M252.5,82.2h4.7c0.1,0,0.2-0.1,0.2-0.2v-25c0-0.1-0.1-0.2-0.2-0.2h-4.7c-0.1,0-0.2,0.1-0.2,0.2v25
			C252.3,82.1,252.4,82.2,252.5,82.2z"/>
		<path class="st1" d="M252.5,53.5h4.7c0.1,0,0.2-0.1,0.2-0.2v-4.7c0-0.1-0.1-0.2-0.2-0.2h-4.7c-0.1,0-0.2,0.1-0.2,0.2v4.7
			C252.3,53.4,252.4,53.5,252.5,53.5z"/>
		<path class="st1" d="M189.7,70.6c0,6.3-6.2,7.3-10,7.3c-3.7,0-10-0.9-10-7.3V48.1c0-0.1-0.1-0.2-0.2-0.2h-4.7
			c-0.1,0-0.2,0.1-0.2,0.2v22.4c0,7.6,5.8,12.3,15.1,12.3c9.3,0,15.1-4.7,15.1-12.3V48.1c0-0.1-0.1-0.2-0.2-0.2H190
			c-0.1,0-0.2,0.1-0.2,0.2V70.6z"/>
		<path class="st1" d="M293.2,63.2h-15.1c-2.7,0-4.9-2-4.9-4.4s2.2-4.4,4.9-4.4h23.5c0.1,0,0.2-0.1,0.2-0.2V50
			c0-0.1-0.1-0.2-0.2-0.2h-22.9c-5.4,0-9.7,4.2-9.7,9.3c0,5.1,4.4,9.3,9.7,9.3h15c2.7,0,4.9,2,4.9,4.4c0,2.4-2.2,4.4-4.9,4.4h-23.2
			c-0.1,0-0.2,0.1-0.2,0.2v4.2c0,0.1,0.1,0.2,0.2,0.2h22.6c5.4,0,9.7-4.2,9.7-9.3C302.9,67.4,298.6,63.2,293.2,63.2z"/>
		<path class="st1" d="M346.8,48.7c-3.8,0-7.5,1.6-9.8,4.2c-0.1,0.1-0.2,0.1-0.3,0c-2.3-2.6-6-4.2-9.8-4.2c-2.7,0-5.3,0.8-7.4,2.1
			v-2.3c0-0.1-0.1-0.2-0.2-0.2h-4.7c-0.1,0-0.2,0.1-0.2,0.2v33.8c0,0.1,0.1,0.2,0.2,0.2h4.7c0.1,0,0.2-0.1,0.2-0.2V59.6
			c0-3.2,3.3-5.8,7.4-5.8c4.1,0,7.4,2.6,7.4,5.8v22.9c0,0.1,0.1,0.2,0.2,0.2h4.7c0.1,0,0.2-0.1,0.2-0.2V59.6c0-3.2,3.3-5.8,7.4-5.8
			c4.1,0,7.4,2.6,7.4,5.8v22.9c0,0.1,0.1,0.2,0.2,0.2h4.7c0.1,0,0.2-0.1,0.2-0.2V59.6C359.3,53.6,353.7,48.7,346.8,48.7z"/>
		<path class="st1" d="M147.3,52c1,3.1,1.3,6.5,0.6,10.1c-1.7,8.4-8.8,15-17.3,15.9c-12.8,1.4-23.5-9.2-22.3-22
			c0.9-8.8,7.6-16,16.2-17.6c3.8-0.7,7.4-0.3,10.6,0.9c0.1,0,0.2,0,0.2,0l3.7-3.7c0.1-0.1,0.1-0.3-0.1-0.4
			c-4.1-1.9-8.8-2.8-13.8-2.2c-11.4,1.4-20.6,10.7-21.9,22.1c-1.9,16.3,11.9,30,28.2,28.1c11.3-1.3,20.4-10.4,21.9-21.6
			c0.7-4.8-0.1-9.4-1.8-13.5c-0.1-0.1-0.3-0.2-0.4-0.1l-3.7,3.7C147.3,51.9,147.3,52,147.3,52z"/>
		<path class="st1" d="M210.7,34.9h-4.5c-0.1,0-0.2,0.1-0.2,0.2v47.2c0,0.1,0.1,0.2,0.2,0.2h4.5c0.1,0,0.2-0.1,0.2-0.2v-4.3
			c3.4,3.3,7.8,5.2,12.6,5.2c4.8,0,9.3-1.9,12.6-5.2c3.4-3.4,5.2-7.8,5.2-12.6c0-4.8-1.9-9.3-5.2-12.6c-3.4-3.4-7.9-5.2-12.6-5.2
			c-4.6,0-8.9,1.7-12.2,4.8c-0.1,0.1-0.4,0-0.4-0.1V35.2C211,35.1,210.9,34.9,210.7,34.9z M210.7,65.4c0-3.4,1.3-6.7,3.8-9.1
			c2.4-2.4,5.7-3.8,9.1-3.8c3.4,0,6.7,1.3,9.1,3.8c2.4,2.4,3.8,5.7,3.8,9.1c0,3.4-1.3,6.7-3.8,9.1c-2.4,2.4-5.6,3.8-9.1,3.8
			s-6.7-1.3-9.1-3.8C212,72.1,210.7,68.9,210.7,65.4z"/>
	</g>
</g>
</svg>
