<?xml version="1.0" encoding="utf-8"?>
<!-- Generator: Adobe Illustrator 23.0.3, SVG Export Plug-In . SVG Version: 6.00 Build 0)  -->
<!DOCTYPE svg PUBLIC "-//W3C//DTD SVG 1.1//EN" "http://www.w3.org/Graphics/SVG/1.1/DTD/svg11.dtd" [
	<!ENTITY ns_extend "http://ns.adobe.com/Extensibility/1.0/">
	<!ENTITY ns_ai "http://ns.adobe.com/AdobeIllustrator/10.0/">
	<!ENTITY ns_graphs "http://ns.adobe.com/Graphs/1.0/">
	<!ENTITY ns_vars "http://ns.adobe.com/Variables/1.0/">
	<!ENTITY ns_imrep "http://ns.adobe.com/ImageReplacement/1.0/">
	<!ENTITY ns_sfw "http://ns.adobe.com/SaveForWeb/1.0/">
	<!ENTITY ns_custom "http://ns.adobe.com/GenericCustomNamespace/1.0/">
	<!ENTITY ns_adobe_xpath "http://ns.adobe.com/XPath/1.0/">
]>
<svg version="1.1" id="レイヤー_1" xmlns:x="&ns_extend;" xmlns:i="&ns_ai;" xmlns:graph="&ns_graphs;"
	 xmlns="http://www.w3.org/2000/svg" xmlns:xlink="http://www.w3.org/1999/xlink" x="0px" y="0px" width="108px" height="24px"
	 viewBox="0 0 108 24" style="enable-background:new 0 0 108 24;" xml:space="preserve">
<style type="text/css">
	.st0{fill:#00B5F0;}
</style>
<metadata>
	<sfw  xmlns="&ns_sfw;">
		<slices></slices>
		<sliceSourceBounds  bottomLeftOrigin="true" height="23.9" width="108" x="0" y="0"></sliceSourceBounds>
	</sfw>
</metadata>
<g>
	<path class="st0" d="M87.7,10.1c0.6-0.1,1-0.7,0.9-1.3c0-0.6-0.5-1.1-1-1.1h-8.9c-0.1,0-0.1,0-0.1-0.1V6.2c0-0.1,0.1-0.1,0.1-0.1
		l9.3,0c1,0,2,0.6,2.4,1.8c0.4,1.2,0.2,3.5-2,3.9c-0.9,0.1-2.1,0.3-4.2,0.7c-1.3,0.3-2.2,0.6-2.7,1c-0.6,0.6-0.8,0.9-0.8,2
		c0,0.1,0,0.1,0.1,0.1h9.6c0.1,0,0.2,0.1,0.2,0.2v1.3c0,0.1-0.1,0.2-0.2,0.2l-11.7,0l0,0c-0.1,0-0.1-0.1-0.1-0.1v-1.4
		c0-1.3,0.2-2.2,1-3c0.9-0.9,2.1-1.5,4.6-1.9C85.4,10.5,86.7,10.3,87.7,10.1z M34.2,15.6c-0.1,0-0.1,0-0.1-0.1V6.2
		c0-0.1,0-0.1-0.1-0.1h-1.8c-0.1,0-0.1,0-0.1,0.1v10.9c0,0.1,0,0.1,0.1,0.1h10.5c0.1,0,0.2-0.1,0.2-0.1v-1.4c0-0.1-0.1-0.1-0.2-0.1
		H34.2z M48.3,17.2c0.1,0,0.2-0.1,0.2-0.2v-5.7c0-0.1-0.1-0.1-0.2-0.1h-1.7c-0.1,0-0.1,0-0.1,0.1v5.7c0,0.1,0,0.1,0.1,0.1H48.3z
		 M46.4,9.8c0,0.1,0,0.1,0.1,0.1h1.8c0.1,0,0.1,0,0.1-0.1V8.1c0-0.1,0-0.1-0.1-0.1h-1.8c-0.1,0-0.1,0-0.1,0.1V9.8z M57.2,17.2l5-9.1
		c0-0.1,0-0.1-0.1-0.1h-1.8c-0.1,0-0.1,0-0.2,0.1l-3,5.5c0,0,0,0.1-0.1,0.1c-0.1,0-0.1,0-0.1-0.1l-3-5.4C54,8,54,8,53.9,8h-1.8
		C52,8,52,8,52,8.1l5,9.1C57.1,17.3,57.2,17.3,57.2,17.2z M72.7,13.1h1.7c0,0,0.1,0,0.1,0.1c-0.3,2.4-2.3,4.3-4.8,4.3
		c-2.7,0-4.9-2.2-4.9-4.9c0-2.7,2.2-4.9,4.9-4.9c1.6,0,3,0.8,3.9,1.9c0,0,0.1,0.1,0,0.1L68,15.2c0,0,0,0.1,0,0.1
		c0.5,0.3,1,0.4,1.5,0.4C71.1,15.7,72.3,14.6,72.7,13.1C72.6,13.1,72.6,13.1,72.7,13.1z M70.8,9.8c-0.4-0.2-0.8-0.3-1.2-0.3
		c-1.7,0-3.1,1.4-3.1,3.1c0,0.4,0.1,0.9,0.3,1.2c0,0,0,0.1,0.1,0L70.8,9.8C70.8,9.8,70.8,9.8,70.8,9.8z M94.6,6.3
		c0-0.1,0.1-0.2,0.2-0.2h7.1c2.3,0,3.4,0.5,4.5,1.4c1.1,1,1.6,2.4,1.6,4.1s-0.5,3.1-1.6,4.1c-1.1,1-2.2,1.4-4.5,1.4h-7.1
		c-0.1,0-0.2-0.1-0.2-0.2V6.3z M96.7,15.4c0,0.2,0.1,0.2,0.2,0.2h5.4c2.4,0,3.7-1.4,3.7-3.9s-1.2-3.9-3.7-3.9h-5.4
		c-0.1,0-0.2,0.1-0.2,0.2V15.4z"/>
	<path class="st0" d="M0.1,6.6C0,6.6,0,6.7,0,6.7V17C0,17,0,17.1,0.1,17l2-1.2c0.1,0,0.1-0.1,0.1-0.2V7.3c0-0.1,0-0.1-0.1-0.1
		L0.1,6.6z"/>
	<path class="st0" d="M3.5,3.2c-0.1,0-0.1,0-0.1,0.1v17.5c0,0.1,0.1,0.1,0.1,0.1l3.6-2.4c0.1,0,0.1-0.1,0.1-0.2V4.8
		c0-0.1-0.1-0.2-0.1-0.2L3.5,3.2z"/>
	<path class="st0" d="M18.4,18.5c0,0.1-0.1,0.3-0.2,0.3l-6.5,5.1c-0.1,0.1-0.2,0-0.2-0.1V0.2c0-0.1,0.1-0.2,0.2-0.1l6.4,4.1
		c0.1,0.1,0.2,0.2,0.2,0.3V18.5z"/>
</g>
</svg>
